<?xml version="1.0" encoding="UTF-8" standalone="no"?>
<svg width="800" height="600" xmlns="http://www.w3.org/2000/svg">
  <defs>
    <linearGradient id="grad1" x1="0%" y1="0%" x2="100%" y2="0%">
      <stop offset="0%" style="stop-color:#3498db;stop-opacity:1" />
      <stop offset="100%" style="stop-color:#2980b9;stop-opacity:1" />
    </linearGradient>
    <linearGradient id="grad2" x1="0%" y1="0%" x2="100%" y2="0%">
      <stop offset="0%" style="stop-color:#2ecc71;stop-opacity:1" />
      <stop offset="100%" style="stop-color:#27ae60;stop-opacity:1" />
    </linearGradient>
    <linearGradient id="grad3" x1="0%" y1="0%" x2="100%" y2="0%">
      <stop offset="0%" style="stop-color:#e74c3c;stop-opacity:1" />
      <stop offset="100%" style="stop-color:#c0392b;stop-opacity:1" />
    </linearGradient>
    <linearGradient id="grad4" x1="0%" y1="0%" x2="100%" y2="0%">
      <stop offset="0%" style="stop-color:#9b59b6;stop-opacity:1" />
      <stop offset="100%" style="stop-color:#8e44ad;stop-opacity:1" />
    </linearGradient>
    <linearGradient id="grad5" x1="0%" y1="0%" x2="100%" y2="0%">
      <stop offset="0%" style="stop-color:#f1c40f;stop-opacity:1" />
      <stop offset="100%" style="stop-color:#f39c12;stop-opacity:1" />
    </linearGradient>
    <linearGradient id="grad6" x1="0%" y1="0%" x2="100%" y2="0%">
      <stop offset="0%" style="stop-color:#1abc9c;stop-opacity:1" />
      <stop offset="100%" style="stop-color:#16a085;stop-opacity:1" />
    </linearGradient>
  </defs>
  
  <!-- Background -->
  <rect width="800" height="600" fill="#f5f5f5" />
  
  <!-- Title -->
  <text x="400" y="50" font-family="Arial" font-size="24" text-anchor="middle" font-weight="bold">Optimized Arbitrage Strategy Architecture</text>
  
  <!-- Main Components -->
  <g transform="translate(50, 100)">
    <!-- Data Collection Module -->
    <rect x="0" y="0" width="700" height="80" rx="10" ry="10" fill="url(#grad1)" />
    <text x="350" y="30" font-family="Arial" font-size="18" text-anchor="middle" fill="white" font-weight="bold">Advanced Data Collection Module</text>
    
    <!-- Data Sources -->
    <rect x="20" y="40" width="100" height="25" rx="5" ry="5" fill="white" opacity="0.8" />
    <text x="70" y="57" font-family="Arial" font-size="11" text-anchor="middle">Multi-Frequency Data</text>
    
    <rect x="130" y="40" width="100" height="25" rx="5" ry="5" fill="white" opacity="0.8" />
    <text x="180" y="57" font-family="Arial" font-size="11" text-anchor="middle">SEC Filings</text>
    
    <rect x="240" y="40" width="100" height="25" rx="5" ry="5" fill="white" opacity="0.8" />
    <text x="290" y="57" font-family="Arial" font-size="11" text-anchor="middle">Insider Trading</text>
    
    <rect x="350" y="40" width="100" height="25" rx="5" ry="5" fill="white" opacity="0.8" />
    <text x="400" y="57" font-family="Arial" font-size="11" text-anchor="middle">Analyst Reports</text>
    
    <rect x="460" y="40" width="100" height="25" rx="5" ry="5" fill="white" opacity="0.8" />
    <text x="510" y="57" font-family="Arial" font-size="11" text-anchor="middle">Order Flow Data</text>
    
    <rect x="570" y="40" width="110" height="25" rx="5" ry="5" fill="white" opacity="0.8" />
    <text x="625" y="57" font-family="Arial" font-size="11" text-anchor="middle">Batch Processing</text>
    
    <!-- Ensemble Machine Learning Pipeline -->
    <rect x="0" y="90" width="700" height="100" rx="10" ry="10" fill="url(#grad2)" />
    <text x="350" y="120" font-family="Arial" font-size="18" text-anchor="middle" fill="white" font-weight="bold">Ensemble Machine Learning Pipeline</text>
    
    <!-- ML Components -->
    <rect x="20" y="140" width="150" height="30" rx="5" ry="5" fill="white" opacity="0.8" />
    <text x="95" y="160" font-family="Arial" font-size="12" text-anchor="middle">Random Forest Models</text>
    
    <rect x="190" y="140" width="150" height="30" rx="5" ry="5" fill="white" opacity="0.8" />
    <text x="265" y="160" font-family="Arial" font-size="12" text-anchor="middle">Gradient Boosting Models</text>
    
    <rect x="360" y="140" width="150" height="30" rx="5" ry="5" fill="white" opacity="0.8" />
    <text x="435" y="160" font-family="Arial" font-size="12" text-anchor="middle">Neural Network Models</text>
    
    <rect x="530" y="140" width="150" height="30" rx="5" ry="5" fill="white" opacity="0.8" />
    <text x="605" y="160" font-family="Arial" font-size="12" text-anchor="middle">Meta-Learner</text>
    
    <!-- Advanced Strategy Components -->
    <rect x="0" y="200" width="700" height="100" rx="10" ry="10" fill="url(#grad3)" />
    <text x="350" y="230" font-family="Arial" font-size="18" text-anchor="middle" fill="white" font-weight="bold">Advanced Strategy Components</text>
    
    <!-- Strategy Elements -->
    <rect x="20" y="250" width="120" height="30" rx="5" ry="5" fill="white" opacity="0.8" />
    <text x="80" y="270" font-family="Arial" font-size="12" text-anchor="middle">Statistical Core</text>
    
    <rect x="150" y="250" width="120" height="30" rx="5" ry="5" fill="white" opacity="0.8" />
    <text x="210" y="270" font-family="Arial" font-size="12" text-anchor="middle">Multi-Timeframe</text>
    
    <rect x="280" y="250" width="120" height="30" rx="5" ry="5" fill="white" opacity="0.8" />
    <text x="340" y="270" font-family="Arial" font-size="12" text-anchor="middle">Regime Detection</text>
    
    <rect x="410" y="250" width="120" height="30" rx="5" ry="5" fill="white" opacity="0.8" />
    <text x="470" y="270" font-family="Arial" font-size="12" text-anchor="middle">Walk-Forward Opt.</text>
    
    <rect x="540" y="250" width="140" height="30" rx="5" ry="5" fill="white" opacity="0.8" />
    <text x="610" y="270" font-family="Arial" font-size="12" text-anchor="middle">High-Frequency Signals</text>
    
    <!-- Adaptive Position Sizing -->
    <rect x="0" y="310" width="340" height="80" rx="10" ry="10" fill="url(#grad6)" />
    <text x="170" y="340" font-family="Arial" font-size="18" text-anchor="middle" fill="white" font-weight="bold">Adaptive Position Sizing</text>
    
    <!-- Position Sizing Elements -->
    <rect x="20" y="350" width="90" height="25" rx="5" ry="5" fill="white" opacity="0.8" />
    <text x="65" y="367" font-family="Arial" font-size="11" text-anchor="middle">Signal Strength</text>
    
    <rect x="120" y="350" width="90" height="25" rx="5" ry="5" fill="white" opacity="0.8" />
    <text x="165" y="367" font-family="Arial" font-size="11" text-anchor="middle">Volatility Adjust</text>
    
    <rect x="220" y="350" width="100" height="25" rx="5" ry="5" fill="white" opacity="0.8" />
    <text x="270" y="367" font-family="Arial" font-size="11" text-anchor="middle">Kelly Optimization</text>
    
    <!-- Enhanced Risk Management -->
    <rect x="360" y="310" width="340" height="80" rx="10" ry="10" fill="url(#grad4)" />
    <text x="530" y="340" font-family="Arial" font-size="18" text-anchor="middle" fill="white" font-weight="bold">Enhanced Risk Management</text>
    
    <!-- Risk Elements -->
    <rect x="380" y="350" width="90" height="25" rx="5" ry="5" fill="white" opacity="0.8" />
    <text x="425" y="367" font-family="Arial" font-size="11" text-anchor="middle">Dynamic Stops</text>
    
    <rect x="480" y="350" width="100" height="25" rx="5" ry="5" fill="white" opacity="0.8" />
    <text x="530" y="367" font-family="Arial" font-size="11" text-anchor="middle">Correlation Limits</text>
    
    <rect x="590" y="350" width="90" height="25" rx="5" ry="5" fill="white" opacity="0.8" />
    <text x="635" y="367" font-family="Arial" font-size="11" text-anchor="middle">Stress Testing</text>
    
    <!-- Execution Module -->
    <rect x="0" y="400" width="700" height="80" rx="10" ry="10" fill="url(#grad5)" />
    <text x="350" y="430" font-family="Arial" font-size="18" text-anchor="middle" fill="white" font-weight="bold">Optimized Execution Module</text>
    
    <!-- Execution Elements -->
    <rect x="20" y="440" width="120" height="25" rx="5" ry="5" fill="white" opacity="0.8" />
    <text x="80" y="457" font-family="Arial" font-size="11" text-anchor="middle">Signal Filtering</text>
    
    <rect x="150" y="440" width="120" height="25" rx="5" ry="5" fill="white" opacity="0.8" />
    <text x="210" y="457" font-family="Arial" font-size="11" text-anchor="middle">Execution Windows</text>
    
    <rect x="280" y="440" width="120" height="25" rx="5" ry="5" fill="white" opacity="0.8" />
    <text x="340" y="457" font-family="Arial" font-size="11" text-anchor="middle">Adaptive Algorithms</text>
    
    <rect x="410" y="440" width="120" height="25" rx="5" ry="5" fill="white" opacity="0.8" />
    <text x="470" y="457" font-family="Arial" font-size="11" text-anchor="middle">Slippage Reduction</text>
    
    <rect x="540" y="440" width="140" height="25" rx="5" ry="5" fill="white" opacity="0.8" />
    <text x="610" y="457" font-family="Arial" font-size="11" text-anchor="middle">Performance Monitoring</text>
  </g>
  
  <!-- Arrows -->
  <g stroke="#555" stroke-width="2" fill="none">
    <!-- Data to ML -->
    <path d="M 400,180 L 400,190" marker-end="url(#arrow)" />
    
    <!-- ML to Strategy -->
    <path d="M 400,290 L 400,300" marker-end="url(#arrow)" />
    
    <!-- Strategy to Position Sizing & Risk -->
    <path d="M 220,400 L 220,410" marker-end="url(#arrow)" />
    <path d="M 580,400 L 580,410" marker-end="url(#arrow)" />
    
    <!-- Position Sizing & Risk to Execution -->
    <path d="M 220,480 L 220,490" marker-end="url(#arrow)" />
    <path d="M 580,480 L 580,490" marker-end="url(#arrow)" />
  </g>
  
  <!-- Arrow Marker -->
  <defs>
    <marker id="arrow" markerWidth="10" markerHeight="10" refX="9" refY="3" orient="auto" markerUnits="strokeWidth">
      <path d="M0,0 L0,6 L9,3 z" fill="#555" />
    </marker>
  </defs>
</svg>
